<?xml version="1.0" standalone="no"?><!DOCTYPE svg PUBLIC "-//W3C//DTD SVG 1.1//EN" "http://www.w3.org/Graphics/SVG/1.1/DTD/svg11.dtd"><svg t="1768202854720" class="icon" viewBox="0 0 1024 1024" version="1.1" xmlns="http://www.w3.org/2000/svg" p-id="7712" xmlns:xlink="http://www.w3.org/1999/xlink" width="200" height="200"><path d="M704 281.6h192v76.8h-76.8v499.2a38.4 38.4 0 0 1-38.4 38.4H243.2a38.4 38.4 0 0 1-38.4-38.4V358.4H128V281.6h192V166.4a38.4 38.4 0 0 1 38.4-38.4h307.2a38.4 38.4 0 0 1 38.4 38.4v115.2z m38.4 76.8H281.6v460.8h460.8V358.4zM396.8 473.6h76.8V704H396.8V473.6z m153.6 0h76.8V704H550.4V473.6zM396.8 204.8v76.8h230.4V204.8H396.8z" p-id="7713" fill="#ffffff"></path></svg>