<?xml version="1.0" standalone="no"?><!DOCTYPE svg PUBLIC "-//W3C//DTD SVG 1.1//EN" "http://www.w3.org/Graphics/SVG/1.1/DTD/svg11.dtd"><svg t="1768203617742" class="icon" viewBox="0 0 1024 1024" version="1.1" xmlns="http://www.w3.org/2000/svg" p-id="23523" xmlns:xlink="http://www.w3.org/1999/xlink" width="200" height="200"><path d="M763.008 823.338667A467.157333 467.157333 0 0 1 512 896c-230.058667 0-421.461333-165.546667-461.568-384A468.565333 468.565333 0 0 1 192.853333 253.226667L59.477333 119.808l60.330667-60.330667 844.757333 844.714667-60.330666 60.373333-141.226667-141.226666zM253.269333 313.6A382.506667 382.506667 0 0 0 137.514667 512a384.213333 384.213333 0 0 0 563.242666 249.088l-86.528-86.528A192 192 0 0 1 349.44 409.770667L253.269333 313.6z m297.728 297.728l-138.325333-138.282667a106.666667 106.666667 0 0 0 138.282667 138.282667z m336.768 96.64l-61.056-61.056A381.226667 381.226667 0 0 0 886.528 512 384.213333 384.213333 0 0 0 407.552 227.754667L340.224 160.426667C393.429333 139.52 451.413333 128 512 128c230.058667 0 421.461333 165.546667 461.610667 384a467.072 467.072 0 0 1-85.845334 195.968z m-387.584-387.584a192 192 0 0 1 203.477334 203.477333l-203.52-203.52z" p-id="23524"></path></svg>