<?xml version="1.0" standalone="no"?><!DOCTYPE svg PUBLIC "-//W3C//DTD SVG 1.1//EN" "http://www.w3.org/Graphics/SVG/1.1/DTD/svg11.dtd"><svg t="1768203606841" class="icon" viewBox="0 0 1024 1024" version="1.1" xmlns="http://www.w3.org/2000/svg" p-id="22553" xmlns:xlink="http://www.w3.org/1999/xlink" width="200" height="200"><path d="M512.853333 341.333333a160 160 0 1 0-0.042666 320 160 160 0 0 0 0-320z m-96 160a96 96 0 1 1 192 0 96 96 0 0 1-192 0z" p-id="22554"></path><path d="M512.853333 170.666667c-196.053333 0-383.445333 136.448-425.898666 323.541333L85.333333 501.333333l1.621334 7.082667c42.453333 187.178667 229.802667 323.626667 425.856 323.626667s383.402667-136.448 425.856-323.541334l1.621333-7.082666-1.621333-7.082667C896.256 307.114667 708.864 170.666667 512.853333 170.666667z m0 597.333333c-166.912 0-323.498667-115.285333-361.813333-266.666667C189.354667 349.866667 345.941333 234.666667 512.853333 234.666667c166.826667 0 323.413333 115.285333 361.728 266.666666C836.266667 652.8 679.68 768 512.810667 768z" p-id="22555"></path></svg>