<?xml version="1.0" standalone="no"?><!DOCTYPE svg PUBLIC "-//W3C//DTD SVG 1.1//EN" "http://www.w3.org/Graphics/SVG/1.1/DTD/svg11.dtd"><svg t="1768202801168" class="icon" viewBox="0 0 1024 1024" version="1.1" xmlns="http://www.w3.org/2000/svg" p-id="5696" xmlns:xlink="http://www.w3.org/1999/xlink" width="200" height="200"><path d="M85.333333 938.666667a341.333333 341.333333 0 1 1 682.666667 0h-85.333333a256 256 0 1 0-512 0H85.333333z m341.333334-384c-141.44 0-256-114.56-256-256s114.56-256 256-256 256 114.56 256 256-114.56 256-256 256z m0-85.333334c94.293333 0 170.666667-76.373333 170.666666-170.666666s-76.373333-170.666667-170.666666-170.666667-170.666667 76.373333-170.666667 170.666667 76.373333 170.666667 170.666667 170.666666z m353.450666 157.994667A341.418667 341.418667 0 0 1 981.333333 938.666667h-85.333333a256.042667 256.042667 0 0 0-150.912-233.514667l34.986667-77.824z m-29.354666-481.706667A234.666667 234.666667 0 0 1 896 362.666667a234.624 234.624 0 0 1-213.333333 233.728v-85.888a149.333333 149.333333 0 0 0 44.416-281.984l23.68-82.901334z" p-id="5697" fill="#ffffff"></path></svg>