<?xml version="1.0" standalone="no"?><!DOCTYPE svg PUBLIC "-//W3C//DTD SVG 1.1//EN" "http://www.w3.org/Graphics/SVG/1.1/DTD/svg11.dtd"><svg t="1768203910015" class="icon" viewBox="0 0 1024 1024" version="1.1" xmlns="http://www.w3.org/2000/svg" p-id="25311" xmlns:xlink="http://www.w3.org/1999/xlink" width="200" height="200"><path d="M128 249.6h768c19.2 0 38.4-19.2 38.4-38.4s-19.2-38.4-38.4-38.4H128c-19.2 0-38.4 19.2-38.4 38.4s19.2 38.4 38.4 38.4zM896 473.6H556.8c-25.6 0-38.4 19.2-38.4 38.4s19.2 38.4 38.4 38.4H896c19.2 0 38.4-19.2 38.4-38.4s-19.2-38.4-38.4-38.4zM896 774.4H128c-19.2 0-38.4 19.2-38.4 38.4s19.2 38.4 38.4 38.4h768c19.2 0 38.4-19.2 38.4-38.4s-19.2-38.4-38.4-38.4zM108.8 672c6.4 0 12.8 6.4 19.2 6.4 6.4 0 19.2 0 25.6-6.4l172.8-128c6.4-6.4 12.8-19.2 12.8-32s-6.4-25.6-19.2-32l-172.8-128c-6.4-6.4-25.6-6.4-38.4 0s-19.2 19.2-19.2 32v256c0 12.8 6.4 25.6 19.2 32z" p-id="25312"></path></svg>